<?xml version="1.0" encoding="UTF-8"?>
<svg version="1.1" xmlns="http://www.w3.org/2000/svg" width="1280" height="640">
<path d="M0 0 C0.86995605 0.01981934 1.73991211 0.03963867 2.63623047 0.06005859 C3.62494141 0.07166016 4.61365234 0.08326172 5.63232422 0.09521484 C7.17726563 0.15128906 7.17726563 0.15128906 8.75341797 0.20849609 C9.72923828 0.22267578 10.70505859 0.23685547 11.71044922 0.25146484 C16.93005831 0.35171342 22.12418664 0.61564958 27.3319397 0.97491455 C36.47208152 1.57869654 45.57965182 1.63552186 54.73779297 1.57568359 C55.40915661 1.57179249 56.08052025 1.56790138 56.77222824 1.56389236 C63.07338136 1.52699061 69.37440833 1.48149529 75.67529297 1.41210938 C79.15844533 1.37438343 82.64143727 1.35143129 86.12476349 1.33780289 C88.06909329 1.32594999 90.01330195 1.29779039 91.9574585 1.26925659 C93.73156097 1.26407516 93.73156097 1.26407516 95.54150391 1.25878906 C96.57531189 1.24911102 97.60911987 1.23943298 98.67425537 1.22946167 C102.20422244 1.65250198 104.59965703 2.74697911 107.62841797 4.58349609 C108.48388672 6.84130859 108.48388672 6.84130859 108.62841797 9.58349609 C108.70705078 10.65341797 108.78568359 11.72333984 108.86669922 12.82568359 C109.08697491 23.60759891 107.0317471 32.3735087 103.62841797 42.58349609 C102.86500092 42.57683426 102.10158386 42.57017242 101.31503296 42.56330872 C94.10601065 42.50309447 86.89711099 42.45746953 79.68790245 42.42805958 C75.98192963 42.41243109 72.27616533 42.3912449 68.5703125 42.35717773 C64.99117622 42.3244829 61.41223999 42.3066219 57.83296585 42.29886436 C56.47026039 42.29333893 55.10756537 42.28254906 53.74494553 42.26630592 C51.83039866 42.24439973 49.91564872 42.24326957 48.00097656 42.24291992 C46.91287689 42.23625809 45.82477722 42.22959625 44.70370483 42.22273254 C41.15388363 42.63916397 38.71692515 43.82810835 35.62841797 45.58349609 C34.73449305 60.34643307 34.63844025 74.82521283 35.62841797 89.58349609 C44.85045404 91.53230372 53.63246613 91.74450329 63.0234375 91.42138672 C63.93464355 91.40140625 64.84584961 91.38142578 65.78466797 91.36083984 C67.00379883 91.31817993 67.00379883 91.31817993 68.24755859 91.2746582 C71.44930556 91.68997915 73.15321654 92.49891826 75.62841797 94.58349609 C76.6617221 98.73412787 76.62482102 102.9181815 76.70751953 107.18774414 C76.75294151 109.2493703 76.85180872 111.30343101 76.95654297 113.36279297 C76.99521484 114.67699219 77.03388672 115.99119141 77.07373047 117.34521484 C77.10998535 118.54106201 77.14624023 119.73690918 77.18359375 120.96899414 C76.62841797 124.58349609 76.62841797 124.58349609 71.62841797 132.58349609 C59.08841797 132.58349609 46.54841797 132.58349609 33.62841797 132.58349609 C33.29841797 165.91349609 32.96841797 199.24349609 32.62841797 233.58349609 C28.54628817 235.62456099 27.84132854 235.77272519 23.62841797 235.20849609 C14.91669354 234.23408218 6.44378706 234.22896019 -2.21533203 235.65771484 C-4.37158203 235.58349609 -4.37158203 235.58349609 -6.63330078 234.61865234 C-9.30061976 231.49579125 -8.83409152 228.23374283 -8.68408203 224.33349609 C-8.67441406 223.59486328 -8.66474609 222.85623047 -8.65478516 222.09521484 C-8.58339671 218.57545419 -8.3212634 215.23233629 -7.82080078 211.73974609 C-7.345531 208.40045928 -7.77282055 205.87668425 -8.37158203 202.58349609 C-8.04158203 201.59349609 -7.71158203 200.60349609 -7.37158203 199.58349609 C-7.27466952 197.01044202 -7.23421587 194.46450232 -7.24028015 191.89138794 C-7.23816444 191.10014334 -7.23604872 190.30889873 -7.2338689 189.49367702 C-7.22786175 186.83366152 -7.22886956 184.17369335 -7.22973633 181.51367188 C-7.22670533 179.61003539 -7.22318405 177.70639964 -7.21920776 175.80276489 C-7.21131425 171.6988835 -7.20617217 167.59501083 -7.2029171 163.4911232 C-7.19701284 157.00372906 -7.18047843 150.51638995 -7.16157532 144.02902222 C-7.15523785 141.80921367 -7.14891223 139.58940509 -7.14259815 137.36959648 C-7.13943234 136.25787315 -7.13626653 135.14614982 -7.13300478 134.00073791 C-7.09090244 118.89438188 -7.05794418 103.78805142 -7.0456543 88.68164062 C-7.03728235 78.49579931 -7.01482427 68.3100941 -6.97629863 58.12432086 C-6.95650972 52.73231214 -6.94414282 47.340507 -6.94913292 41.94845963 C-6.95376872 36.87749653 -6.94003245 31.80691961 -6.91212082 26.73603439 C-6.9051912 24.8740287 -6.90510144 23.01198323 -6.91232109 21.14997864 C-6.9211777 18.60938074 -6.90556843 16.07006512 -6.88383484 13.52957153 C-6.89227738 12.79133813 -6.90071991 12.05310473 -6.90941828 11.29250062 C-6.85228241 7.68482833 -6.44340885 5.69636364 -4.48779011 2.62333488 C-2.37158203 0.58349609 -2.37158203 0.58349609 0 0 Z " fill="#080808" transform="translate(535.37158203125,208.41650390625)"/>
<path d="M0 0 C3.83323627 11.18878582 3.55974421 22.49658129 3.6875 34.1875 C3.72109459 36.30852699 3.75561212 38.42953954 3.79101562 40.55053711 C4.03718494 56.44600952 4.08129902 72.3440643 3.96362305 88.2409668 C3.95928757 89.05284454 3.95495209 89.86472229 3.95048523 90.70120239 C3.94217596 92.19470308 3.92979841 93.68819016 3.91218567 95.18161011 C3.89693777 98.31388383 4.04142205 101.28291467 4.49560547 104.38500977 C5.12329395 108.8836464 5.14295404 113.26887238 5.1328125 117.8046875 C5.13479141 119.22250267 5.13479141 119.22250267 5.1368103 120.66896057 C5.13872152 123.73767403 5.13239957 126.80629585 5.125 129.875 C5.12367065 131.4382048 5.12367065 131.4382048 5.12231445 133.0329895 C5.10400245 151.3701696 4.73656381 169.67797518 4 188 C7.07116712 188.67788525 9.89508053 189.11794127 13.0390625 189.0625 C13.77890381 189.05404053 14.51874512 189.04558105 15.28100586 189.03686523 C16.05452393 189.02469971 16.82804199 189.01253418 17.625 189 C24.4863854 188.94558283 31.17810766 189.21367596 38 190 C46.88719267 190.93151878 55.4387864 191.53642594 64.3125 190.25 C67.75774291 189.88705774 68.81740243 189.91429094 72.0625 191.4375 C76.69735472 197.56746915 75.11717354 207.65692238 75.0625 215 C75.05798828 216.15628906 75.05347656 217.31257812 75.04882812 218.50390625 C75.03712529 221.33599225 75.02072996 224.16796811 75 227 C68.67337809 230.3309663 63.64021298 231.57071873 56.52392578 231.39404297 C55.1732048 231.38510765 55.1732048 231.38510765 53.79519653 231.37599182 C50.84463769 231.3513001 47.8954463 231.29734445 44.9453125 231.2421875 C42.87704207 231.21732013 40.80875251 231.19399985 38.740448 231.17214966 C34.41473726 231.12219491 30.08952081 231.05862921 25.76416016 230.984375 C20.24469713 230.8899896 14.72531268 230.8216805 9.20536995 230.76266289 C4.93623334 230.715445 0.66727828 230.65823626 -3.60168839 230.59769058 C-5.63564324 230.56927396 -7.66962894 230.54297746 -9.70363998 230.51891708 C-35.71453625 230.19030917 -35.71453625 230.19030917 -42 226 C-42.29855417 223.0630101 -42.39968637 220.33622219 -42.3742218 217.39639282 C-42.37819621 216.49504116 -42.38217061 215.59368951 -42.38626546 214.66502416 C-42.39593671 211.62629738 -42.38404118 208.58803058 -42.37231445 205.54931641 C-42.37474086 203.37819748 -42.3784587 201.20707967 -42.38337708 199.03596497 C-42.3928115 193.12478707 -42.38333862 187.21377402 -42.37004495 181.30260897 C-42.35875804 175.12649277 -42.36283589 168.95038502 -42.36479187 162.77426147 C-42.36567585 152.39863379 -42.35457376 142.02307131 -42.33618164 131.64746094 C-42.31502358 119.64256774 -42.31150116 107.6377879 -42.3177436 95.63287795 C-42.32343426 84.09985756 -42.31779438 72.56687095 -42.30657005 61.03385544 C-42.30191898 56.11926017 -42.30105243 51.20468553 -42.3031559 46.29008865 C-42.30503663 40.50354013 -42.29695142 34.71708924 -42.2810955 28.93056297 C-42.27684494 26.8036699 -42.27600726 24.67676695 -42.27878571 22.54987144 C-42.28199715 19.6523312 -42.2729517 16.75508452 -42.26069641 13.85757446 C-42.26447573 13.01069049 -42.26825506 12.16380653 -42.27214891 11.29125941 C-42.21551412 3.75029255 -42.21551412 3.75029255 -40 1 C-37.18932147 0.34807019 -34.72599344 -0.02440939 -31.875 -0.25 C-31.07545898 -0.32516846 -30.27591797 -0.40033691 -29.45214844 -0.4777832 C-19.62182387 -1.32606072 -9.74589331 -1.71347914 0 0 Z " fill="#0D0D0D" transform="translate(381,214)"/>
<path d="M0 0 C0.94746094 0.17144531 1.89492187 0.34289062 2.87109375 0.51953125 C7.61547578 1.69701939 7.61547578 1.69701939 9.5625 3.1875 C10.171875 5.875 10.171875 5.875 10.3125 9.1875 C10.36664062 10.36699219 10.42078125 11.54648438 10.4765625 12.76171875 C10.50492188 13.89222656 10.53328125 15.02273437 10.5625 16.1875 C10.59085938 17.01894531 10.61921875 17.85039062 10.6484375 18.70703125 C10.6910279 21.20708783 10.64267362 23.6881744 10.5625 26.1875 C10.52253906 27.47269531 10.48257812 28.75789063 10.44140625 30.08203125 C10.08532567 38.8273704 9.77525185 46.38994432 3.9375 53.375 C0.23447699 58.31615034 -0.13740329 64.20028378 0.5625 70.1875 C2.16479667 73.51290141 4.55616925 75.12614841 7.5625 77.1875 C8.08473145 77.56471191 8.60696289 77.94192383 9.14501953 78.33056641 C15.82081091 83.14894244 22.63052623 87.38962326 30.0625 90.9375 C34.6386904 93.12812029 38.23692978 95.27180221 41.89453125 98.7578125 C43.80806997 100.39798855 45.77581097 101.44121675 48 102.625 C56.23155428 107.3505219 62.83590743 114.57631709 69.5625 121.1875 C70.07047119 121.64406982 70.57844238 122.10063965 71.10180664 122.57104492 C73.00005469 124.67171354 74.10545646 126.884156 75.375 129.4140625 C76.15230469 130.96287109 76.15230469 130.96287109 76.9453125 132.54296875 C77.47898437 133.62191406 78.01265625 134.70085937 78.5625 135.8125 C79.09617187 136.86824219 79.62984375 137.92398438 80.1796875 139.01171875 C84.64319889 147.97205132 88.13428047 155.76093107 87.9375 165.875 C87.92009766 167.04554932 87.92009766 167.04554932 87.90234375 168.23974609 C87.43971085 184.8843255 81.54293385 200.56265335 70.5625 213.1875 C69.88445312 214.00734375 69.20640625 214.8271875 68.5078125 215.671875 C60.47071356 225.07166545 50.8853907 231.7373346 38.5625 234.1875 C36.98038427 234.25298492 35.39579919 234.27328381 33.8125 234.25 C33.01328125 234.24097656 32.2140625 234.23195313 31.390625 234.22265625 C30.48570313 234.20525391 30.48570313 234.20525391 29.5625 234.1875 C28.11335014 226.53374507 27.88769353 218.79623723 27.56542969 211.02954102 C27.48018361 209.17739101 27.37699912 207.32597918 27.25585938 205.47583008 C26.25616284 190.02310333 26.25616284 190.02310333 29.49560547 185.47119141 C31.77979198 183.71472599 33.99246268 182.46823336 36.5625 181.1875 C40.67300308 176.42797012 42.84450736 170.42177753 43.5625 164.1875 C42.50481406 159.6101699 40.51925539 156.3219098 37.75 152.5625 C37.08355469 151.64210938 36.41710938 150.72171875 35.73046875 149.7734375 C31.85650398 145.15260024 28.47722611 143.15650427 22.8203125 141.2421875 C18.98770213 139.45186778 15.95544528 136.66716738 12.76171875 133.9296875 C10.59299102 132.00810103 10.59299102 132.00810103 7.5625 131.1875 C7.2325 130.5275 6.9025 129.8675 6.5625 129.1875 C4.54580173 128.05399466 4.54580173 128.05399466 2.5625 127.1875 C2.5625 126.5275 2.5625 125.8675 2.5625 125.1875 C1.72074219 124.9503125 0.87898438 124.713125 0.01171875 124.46875 C-3.94787576 122.99791535 -7.13067186 121.02202445 -10.625 118.6875 C-11.54829102 118.08228516 -11.54829102 118.08228516 -12.49023438 117.46484375 C-15.14851675 115.71953593 -17.79156679 113.95145547 -20.4375 112.1875 C-20.4375 111.5275 -20.4375 110.8675 -20.4375 110.1875 C-21.30955078 109.82398438 -21.30955078 109.82398438 -22.19921875 109.453125 C-32.39233779 103.68947654 -38.29397136 89.04001682 -41.34545898 78.15625 C-43.4462805 69.60186749 -43.93001907 60.97118198 -44.125 52.1875 C-44.16874756 51.05417236 -44.21249512 49.92084473 -44.25756836 48.75317383 C-44.26836389 40.12881667 -41.71810894 35.79396021 -36.4375 29.1875 C-35.13770185 26.98343276 -34.06108304 24.74199175 -32.9375 22.4375 C-28.57058904 14.16948191 -23.62652755 10.6803308 -15.515625 6.41796875 C-12.71020882 4.75686706 -10.66473829 2.54575231 -8.4375 0.1875 C-5.04106119 -0.94464627 -3.47338384 -0.65508867 0 0 Z " fill="#060606" transform="translate(1149.4375,210.8125)"/>
<path d="M0 0 C0.94746094 0.17144531 1.89492187 0.34289062 2.87109375 0.51953125 C5.3758445 1.14117476 7.29136912 1.99941674 9.5625 3.1875 C11.88627837 43.27662884 11.88627837 43.27662884 2.63671875 55.609375 C1.13547089 57.81484458 0.75673518 59.53295254 0.5625 62.1875 C0.2840625 64.0746875 0.2840625 64.0746875 0 66 C0.09004812 69.69889981 1.17915077 71.44015712 3.6875 74.125 C12.20116765 81.77084212 22.32914091 87.15741605 32.43212891 92.37231445 C36.44710765 94.48158306 39.76938496 96.73592882 43.05078125 99.84375 C44.67177599 101.28463422 46.31077572 102.29153031 48.1875 103.375 C52.14279819 105.75743107 55.6082397 108.58828822 59.125 111.5625 C59.91994873 112.23188599 59.91994873 112.23188599 60.73095703 112.91479492 C62.36468677 114.31481124 63.96599671 115.74522192 65.5625 117.1875 C66.14346436 117.69345703 66.72442871 118.19941406 67.32299805 118.72070312 C72.44095784 123.43787148 75.27981889 128.69798286 78.25 134.9375 C78.70955078 135.86304688 79.16910156 136.78859375 79.64257812 137.7421875 C88.33444655 155.54749856 88.33444655 155.54749856 88 165.5 C87.98606201 166.22147217 87.97212402 166.94294434 87.95776367 167.6862793 C87.25454314 188.51489277 78.24675847 206.6523203 63.5625 221.1875 C55.57376795 228.62528502 44.95321391 234.41383403 33.8125 234.25 C33.01328125 234.24097656 32.2140625 234.23195313 31.390625 234.22265625 C30.48570313 234.20525391 30.48570313 234.20525391 29.5625 234.1875 C27.8084232 226.85683547 27.86734195 219.17651242 27.56542969 211.67773438 C27.48026336 209.77026875 27.3771133 207.86351979 27.25585938 205.95800781 C26.25500596 190.04883782 26.25500596 190.04883782 29.49560547 185.43554688 C31.78186397 183.67794827 33.98176135 182.45032921 36.5625 181.1875 C40.67300308 176.42797012 42.84450736 170.42177753 43.5625 164.1875 C42.50481406 159.6101699 40.51925539 156.3219098 37.75 152.5625 C37.08355469 151.64210938 36.41710937 150.72171875 35.73046875 149.7734375 C31.85650398 145.15260024 28.47722611 143.15650427 22.8203125 141.2421875 C18.98770213 139.45186778 15.95544528 136.66716738 12.76171875 133.9296875 C10.59299102 132.00810103 10.59299102 132.00810103 7.5625 131.1875 C7.2325 130.5275 6.9025 129.8675 6.5625 129.1875 C4.54580173 128.05399466 4.54580173 128.05399466 2.5625 127.1875 C2.5625 126.5275 2.5625 125.8675 2.5625 125.1875 C1.69753906 124.92710937 0.83257812 124.66671875 -0.05859375 124.3984375 C-3.48550878 123.17029454 -6.36960206 121.6624642 -9.5 119.8125 C-10.50160156 119.22726562 -11.50320312 118.64203125 -12.53515625 118.0390625 C-15.35364048 116.24099854 -17.94187032 114.41296059 -20.4375 112.1875 C-20.4375 111.5275 -20.4375 110.8675 -20.4375 110.1875 C-21.30955078 109.82398438 -21.30955078 109.82398438 -22.19921875 109.453125 C-32.18437796 103.80706639 -38.32242938 88.76580391 -41.3125 78.25 C-44.4901068 65.55968424 -47.56359583 46.24188204 -41.34765625 34.36328125 C-39.38510709 31.27890507 -37.11197223 28.53889926 -34.69213867 25.80615234 C-32.81942612 23.39010171 -31.65143058 20.70410958 -30.34912109 17.9519043 C-29.24412873 15.81323805 -28.00854877 14.42995392 -26.125 12.9375 C-25.52042969 12.45796875 -24.91585937 11.9784375 -24.29296875 11.484375 C-22.01495006 9.89215983 -19.65257573 8.56919583 -17.203125 7.26171875 C-14.53227434 5.6367543 -12.30716446 3.57188659 -10.015625 1.45703125 C-6.64002554 -1.25848811 -4.00696673 -0.75572371 0 0 Z " fill="#0D0D0D" transform="translate(83.4375,210.8125)"/>
<path d="M0 0 C2.32970709 6.32619649 2.66190584 12.31674341 3 19 C3.09861328 20.39605469 3.09861328 20.39605469 3.19921875 21.8203125 C3.46493388 27.81264683 2.66041115 31.18366954 -1 36 C-1.99 36.639375 -2.98 37.27875 -4 37.9375 C-7.97129746 40.667767 -9.46170042 43.47448204 -11 48 C-11.45501028 51.50749439 -11.35686726 54.92095537 -11.20703125 58.44921875 C-11.16880501 59.91268486 -11.16880501 59.91268486 -11.12980652 61.40571594 C-11.04365488 64.50059323 -10.92800002 67.59359441 -10.8125 70.6875 C-10.75272695 72.77664114 -10.69476662 74.86583498 -10.63867188 76.95507812 C-10.52577234 80.77992584 -10.41242593 84.60464022 -10.26879883 88.4284668 C-10.24118973 89.19265427 -10.21358063 89.95684174 -10.18513489 90.7441864 C-10.04204042 93.04938608 -10.04204042 93.04938608 -9.48930359 95.46897888 C-8.98584496 98.07321978 -8.88622809 100.41805344 -8.90234375 103.06787109 C-8.90564697 104.05435638 -8.9089502 105.04084167 -8.91235352 106.05722046 C-8.92065186 107.11857208 -8.9289502 108.17992371 -8.9375 109.2734375 C-8.94128662 110.38820465 -8.94507324 111.5029718 -8.94897461 112.65151978 C-8.96518137 117.39956334 -8.99284963 122.14751907 -9.02050781 126.89550781 C-9.10415205 142.6162216 -9.04093303 158.30681556 -8 174 C-7.94086426 174.91263107 -7.88172852 175.82526215 -7.82080078 176.76554871 C-7.74974121 177.65736343 -7.67868164 178.54917816 -7.60546875 179.46801758 C-7.54383545 180.26855057 -7.48220215 181.06908356 -7.41870117 181.89387512 C-6.72438382 185.38638754 -4.72437179 186.93021469 -2 189.0625 C-1.0925 189.79597656 -0.185 190.52945313 0.75 191.28515625 C1.4925 191.85105469 2.235 192.41695312 3 193 C4.59776224 194.59776224 4.20233252 196.33878298 4.28125 198.55078125 C4.31863281 199.47697266 4.35601562 200.40316406 4.39453125 201.35742188 C4.42933594 202.33259766 4.46414063 203.30777344 4.5 204.3125 C4.5690948 206.22540229 4.64187466 208.13817585 4.71875 210.05078125 C4.74904297 210.90325439 4.77933594 211.75572754 4.81054688 212.6340332 C4.98992599 214.8741917 5.43581131 216.83187993 6 219 C6.53157281 225.48518827 5.6026782 228.5959827 2 234 C-10.26799116 233.37620384 -20.45064712 228.53807325 -30 221 C-30.95326172 220.29230469 -30.95326172 220.29230469 -31.92578125 219.5703125 C-45.92495944 208.58204403 -50.84679941 190.81637042 -53.46875 173.9921875 C-54.7425922 162.13837811 -53.99410328 150.16047769 -53.3581543 138.28979492 C-52.88656746 128.90649152 -52.90619596 119.53301606 -52.98413086 110.14038086 C-53.00959033 106.70648555 -52.99584192 103.2735778 -52.96484375 99.83984375 C-52.91330853 91.95978696 -52.90716382 84.19405795 -53.78125 76.3515625 C-54.07056025 73.24147731 -54.01471906 70.17075871 -53.96484375 67.05078125 C-53.9569878 64.73664645 -53.9569878 64.73664645 -54.5625 61.4375 C-55.06814815 57.46455028 -54.61008371 53.91658679 -54 50 C-53.7834375 48.0509375 -53.7834375 48.0509375 -53.5625 46.0625 C-53.37802386 44.70791808 -53.19045217 43.35375462 -53 42 C-52.92523438 41.30132812 -52.85046875 40.60265625 -52.7734375 39.8828125 C-51.65388751 32.56668348 -47.56710773 27.64172131 -43 22 C-42.46375 21.29875 -41.9275 20.5975 -41.375 19.875 C-37.02035318 14.47523795 -31.69378711 10.34558719 -26.12109375 6.28125 C-24.34296321 4.98159013 -22.58636884 3.64744708 -20.91015625 2.21875 C-14.74240346 -2.63987364 -7.3028437 -0.96040002 0 0 Z " fill="#0E0E0E" transform="translate(254,211)"/>
<path d="M0 0 C1.3303125 0.2475 1.3303125 0.2475 2.6875 0.5 C6.15366457 1.01992469 9.43883906 0.93869548 12.9375 0.8125 C18.3733281 0.76216826 23.19973393 1.4950251 28.4375 2.8125 C29.09935303 2.97790283 29.76120605 3.14330566 30.44311523 3.3137207 C34.57815195 4.42536854 38.23644791 5.96989231 42 8 C41.89171875 8.81911865 41.89171875 8.81911865 41.78125 9.65478516 C40.53095025 20.80980325 40.94063159 32.04646014 41.02050781 43.25195312 C41.08397215 53.02546144 41.08613104 62.67572313 40.19140625 72.41845703 C39.94455769 75.74776399 40.16054092 78.93255896 40.5 82.25 C41.20253674 90.45728221 40.74844778 98.55248782 40.3359375 106.76708984 C39.99482219 114.14258635 40.19692927 121.25709315 40.8125 128.60546875 C41.0393895 132.71311401 40.71996315 136.60026594 40.15625 140.66796875 C39.89062904 142.98873151 39.89062904 142.98873151 40.48214722 145.16574097 C41.12484716 148.68330074 41.13959649 152.11862721 41.12939453 155.68017578 C41.13114685 156.43686554 41.13289917 157.1935553 41.13470459 157.97317505 C41.13909102 160.46391114 41.13619702 162.95457574 41.1328125 165.4453125 C41.13348632 167.17975885 41.134457 168.9142051 41.13571167 170.64865112 C41.13718417 174.27830914 41.13504792 177.90794251 41.13037109 181.53759766 C41.12466556 186.19270342 41.12796085 190.84775163 41.13394356 195.5028553 C41.13755397 199.08186274 41.13640851 202.6608565 41.13381577 206.23986435 C41.13314827 207.95669435 41.13396874 209.6735256 41.13629532 211.39035416 C41.13883062 213.78647414 41.1349692 216.18250029 41.12939453 218.57861328 C41.13141876 219.28932983 41.13344299 220.00004639 41.13552856 220.7322998 C41.12241328 223.77040756 40.96918591 226.09244226 40 229 C37.5234375 230.1328125 37.5234375 230.1328125 34.375 231.125 C32.83972656 231.62386719 32.83972656 231.62386719 31.2734375 232.1328125 C25.1679935 233.75024516 19.2296288 234.16092081 12.9375 234.125 C11.9155957 234.13080078 11.9155957 234.13080078 10.87304688 234.13671875 C6.81999779 234.12893191 2.93342753 234.01696343 -1 233 C-3.43027505 229.35458743 -3.36399072 226.52187104 -3.44921875 222.296875 C-3.47095657 221.54085999 -3.4926944 220.78484497 -3.51509094 220.00592041 C-3.55898783 218.40559584 -3.59819229 216.80513667 -3.63305664 215.20458984 C-3.68699766 212.77264803 -3.75731734 210.34159981 -3.83007812 207.91015625 C-3.87077294 206.35158781 -3.91051666 204.79299419 -3.94921875 203.234375 C-3.96997971 202.51433289 -3.99074066 201.79429077 -4.01213074 201.0524292 C-4.10031727 196.58834796 -3.67691041 192.40562103 -3 188 C-2.93714135 186.3213598 -2.91321116 184.64057859 -2.9375 182.9609375 C-2.94523438 182.04957031 -2.95296875 181.13820313 -2.9609375 180.19921875 C-2.98665506 178.33983924 -3.01268845 176.48046407 -3.0390625 174.62109375 C-3.0803716 169.71219582 -2.94296204 164.89478182 -2.50418091 160.00379944 C-1.94906125 153.02715284 -1.8589853 146.09913377 -1.87060547 139.10327148 C-1.86924615 137.76795911 -1.86746326 136.43264712 -1.86529541 135.09733582 C-1.86078811 131.51529711 -1.86248158 127.93328763 -1.8656745 124.3512485 C-1.86822836 120.58687185 -1.86585264 116.82249749 -1.86428833 113.05812073 C-1.86247742 106.74992427 -1.86484662 100.44173959 -1.86962891 94.13354492 C-1.87509074 86.84485801 -1.87329066 79.556199 -1.8678025 72.26751274 C-1.86326589 65.99037991 -1.86262288 59.71325547 -1.86524117 53.43612152 C-1.86679819 49.69481547 -1.86701302 45.95352254 -1.86370468 42.21221733 C-1.86028159 38.05218724 -1.86502457 33.89220548 -1.87060547 29.73217773 C-1.86858124 28.49528198 -1.86655701 27.25838623 -1.86447144 25.98400879 C-1.86729126 24.85297226 -1.87011108 23.72193573 -1.87301636 22.55662537 C-1.8735819 21.08311694 -1.8735819 21.08311694 -1.87415886 19.57984066 C-1.9893906 17.21750085 -2.38181189 15.26927583 -3 13 C-3.39058391 7.7271172 -2.6719551 4.56458996 0 0 Z " fill="#070707" transform="translate(961,210)"/>
<path d="M0 0 C16.99086653 3.03747335 29.9165408 11.19858326 40.2421875 24.99609375 C53.80612647 45.49555623 56.15605841 69.95515535 56.16796875 93.91796875 C56.17119387 95.46283497 56.17455881 97.0077009 56.17805481 98.55256653 C56.18401681 101.7859467 56.18589811 105.01930028 56.18530273 108.25268555 C56.18522201 111.51934409 56.1920821 114.78586081 56.20581055 118.05249023 C56.51460844 192.68783999 56.51460844 192.68783999 36 217 C35.40703125 217.72832031 34.8140625 218.45664062 34.203125 219.20703125 C25.94689439 228.43354537 13.15513608 233.61479931 1 235 C-1.3671875 234.5625 -1.3671875 234.5625 -3 234 C-4.40323096 227.18263625 -4.37077961 220.25428751 -4.60546875 213.32226562 C-4.66154297 211.83049805 -4.66154297 211.83049805 -4.71875 210.30859375 C-4.74904297 209.40939209 -4.77933594 208.51019043 -4.81054688 207.58374023 C-4.9472872 204.96768791 -4.9472872 204.96768791 -5.54638672 202.31518555 C-6.26070658 198.66938616 -5.05479953 196.2856941 -3.5078125 193.0078125 C-1.22997903 189.97463529 1.31096187 189.55754364 4.87109375 188.63671875 C7.21755852 188.06993923 7.21755852 188.06993923 9.5625 186.0625 C11.48669205 181.96313432 11.25658217 178.50949134 11.04296875 174.03515625 C11 171 11 171 11.48901367 168.28759766 C12.05827146 164.6250915 12.14384009 161.05815336 12.1328125 157.36328125 C12.13376923 156.64319382 12.13472595 155.92310638 12.13571167 155.18119812 C12.13638919 153.6625459 12.13456491 152.14389072 12.13037109 150.62524414 C12.12505616 148.33668259 12.1303103 146.04832083 12.13671875 143.75976562 C12.1388931 136.49101464 12.01599314 129.31649398 11.11669922 122.09057617 C11 120 11 120 12 117 C12.0988402 115.02824908 12.13825457 113.05331583 12.14526367 111.07910156 C12.15164352 109.86063538 12.15802338 108.64216919 12.16459656 107.38677979 C12.16570938 106.06804871 12.1668222 104.74931763 12.16796875 103.390625 C12.17118341 102.02162644 12.17454765 100.65262822 12.17805481 99.28363037 C12.18404339 96.41206059 12.1858951 93.54052089 12.18530273 90.66894531 C12.18520138 87.00284048 12.19882672 83.3369305 12.21607494 79.67087173 C12.22723856 76.84144214 12.22922057 74.01205891 12.22869301 71.18260956 C12.2304362 69.17806054 12.24125332 67.173526 12.25224304 65.16900635 C12.30339687 56.37505031 12.30339687 56.37505031 10 48 C6.0087835 45.30824934 1.61630133 44.20023835 -3 43 C-3.77823771 35.41218231 -4.0585257 27.95829303 -3.94921875 20.33203125 C-3.99528556 17.30933983 -4.32918943 14.53915106 -4.8125 11.5625 C-5.28736459 7.78232793 -4.77289367 5.98569446 -2.5625 2.875 C-1.716875 1.92625 -0.87125 0.9775 0 0 Z " fill="#060606" transform="translate(1021,210)"/>
<path d="M0 0 C4.56196216 6.92159776 4.20992314 14.4471755 4.25 22.4375 C4.270625 23.46166016 4.29125 24.48582031 4.3125 25.54101562 C4.34841498 32.47709584 3.61697829 36.98650985 -1.0625 42.375 C-3 44 -3 44 -5 44 C-7.37146441 50.52461116 -7.2725669 56.72444384 -7.23046875 63.61328125 C-7.2304184 64.84339935 -7.23036804 66.07351746 -7.23031616 67.34091187 C-7.22732638 70.64841138 -7.21506238 73.95559204 -7.19743729 77.26302719 C-7.1874675 79.31920266 -7.18120959 81.37535581 -7.17623901 83.43154907 C-7.12926297 102.66275154 -6.88305267 121.87076866 -6.13671875 141.08886719 C-5.98401541 145.45727344 -5.87900646 149.82540867 -5.78125 154.1953125 C-5.72618672 156.49298605 -5.67033679 158.79063913 -5.61422729 161.08828735 C-5.58023417 162.54995146 -5.54916024 164.01168692 -5.52127075 165.47348022 C-5.48235548 167.47859783 -5.43090664 169.48346032 -5.37890625 171.48828125 C-5.34132202 173.19818237 -5.34132202 173.19818237 -5.30297852 174.94262695 C-4.8573861 179.43912477 -3.9644814 182.11166187 -0.625 185.1875 C1.82949312 187.02565751 1.82949312 187.02565751 4.1875 187.875 C7.01740412 189.63149221 7.15902396 191.84229562 8 195 C8.24291992 198.47924805 8.24291992 198.47924805 8.23046875 202.26171875 C8.23001053 202.93419144 8.22955231 203.60666412 8.2290802 204.29951477 C8.22607748 205.71051821 8.21825109 207.12151892 8.20581055 208.5324707 C8.18746441 210.69168823 8.18530181 212.85047797 8.18554688 215.00976562 C8.14788186 225.55635443 8.14788186 225.55635443 7 229 C1.56110221 231.71944889 -5.01221443 229.93037072 -10.5625 228.375 C-19.79724329 225.29317288 -25.11369181 220.27206083 -31.23828125 212.85546875 C-32.95834743 210.7526412 -32.95834743 210.7526412 -36 210 C-36.93554688 208.12084961 -36.93554688 208.12084961 -37.71875 205.65234375 C-38.00983643 204.74548828 -38.30092285 203.83863281 -38.60083008 202.90429688 C-38.89755615 201.92525391 -39.19428223 200.94621094 -39.5 199.9375 C-39.80897217 198.93396484 -40.11794434 197.93042969 -40.4362793 196.89648438 C-44.54089307 183.24714455 -46.38721075 169.77925322 -47.52734375 155.609375 C-47.8131078 152.06857031 -48.1510692 148.54353027 -48.56640625 145.015625 C-50.37139616 129.35943457 -50.2628035 113.73475435 -50 98 C-49.9819632 96.87368164 -49.9819632 96.87368164 -49.96356201 95.72460938 C-49.88641279 91.03511766 -49.79251087 86.34630087 -49.67959595 81.65753174 C-49.64379554 80.16079841 -49.61017012 78.66401114 -49.57894897 77.16717529 C-49.37846828 67.97267982 -48.63252034 59.06824421 -47 50 C-46.76579346 48.58992676 -46.76579346 48.58992676 -46.52685547 47.15136719 C-46.08268898 44.49206881 -45.6079965 41.83998903 -45.125 39.1875 C-44.97675781 38.31158203 -44.82851563 37.43566406 -44.67578125 36.53320312 C-42.50530783 24.71912218 -37.05822834 17.13419233 -27.3203125 10.05078125 C-8.06721071 -2.52100335 -8.06721071 -2.52100335 0 0 Z " fill="#0C0C0C" transform="translate(861,214)"/>
<path d="M0 0 C4.56196216 6.92159776 4.20992314 14.4471755 4.25 22.4375 C4.270625 23.46166016 4.29125 24.48582031 4.3125 25.54101562 C4.34841498 32.47709584 3.61697829 36.98650985 -1.0625 42.375 C-3 44 -3 44 -5 44 C-7.32323897 50.43854287 -7.27303856 56.50107553 -7.23046875 63.296875 C-7.2304184 64.50279297 -7.23036804 65.70871094 -7.23031616 66.95117188 C-7.22732067 70.20943477 -7.21502166 73.46748086 -7.19743729 76.72569275 C-7.18747148 78.75581006 -7.18120839 80.78590471 -7.17623901 82.81604004 C-7.11941724 105.83627816 -6.79417226 128.84557579 -6.06640625 151.8548584 C-6.00250447 153.91909736 -5.94360235 155.98340848 -5.88671875 158.04785156 C-5.78966097 161.49070673 -5.67986039 164.93278511 -5.5625 168.375 C-5.53551025 169.3144043 -5.50852051 170.25380859 -5.48071289 171.22167969 C-5.30935991 175.51659906 -5.10832284 179.14583789 -3 183 C-0.69310286 185.12477368 1.269854 186.7079416 4.1875 187.875 C7.01740412 189.63149221 7.15902396 191.84229562 8 195 C8.24291992 198.47924805 8.24291992 198.47924805 8.23046875 202.26171875 C8.23001053 202.93419144 8.22955231 203.60666412 8.2290802 204.29951477 C8.22607748 205.71051821 8.21825109 207.12151892 8.20581055 208.5324707 C8.18746441 210.69168823 8.18530181 212.85047797 8.18554688 215.00976562 C8.14788186 225.55635443 8.14788186 225.55635443 7 229 C1.91058184 231.54470908 -5.33758445 230.15267916 -10.6796875 228.8125 C-19.89733588 225.58477127 -27.6172653 219.07410204 -33 211 C-33.99 210.67 -34.98 210.34 -36 210 C-36.93554688 208.12084961 -36.93554688 208.12084961 -37.71875 205.65234375 C-38.00983643 204.74548828 -38.30092285 203.83863281 -38.60083008 202.90429688 C-38.89755615 201.92525391 -39.19428223 200.94621094 -39.5 199.9375 C-39.80897217 198.93396484 -40.11794434 197.93042969 -40.4362793 196.89648438 C-44.86261185 182.17731211 -46.6054774 167.61713024 -47.75048828 152.33325195 C-47.96537795 149.96737022 -47.96537795 149.96737022 -48.50708008 147.54370117 C-49.02846209 144.8531221 -49.20842573 142.30022148 -49.31640625 139.5625 C-49.37948975 137.99060913 -49.37948975 137.99060913 -49.44384766 136.38696289 C-49.48300293 135.26926514 -49.5221582 134.15156738 -49.5625 133 C-49.6042334 131.83009521 -49.6459668 130.66019043 -49.68896484 129.45483398 C-50.03923366 118.96178109 -50.1770347 108.49720917 -50 98 C-49.98904297 97.34892273 -49.97808594 96.69784546 -49.96679688 96.02703857 C-49.88739396 91.46306888 -49.79115677 86.89971626 -49.68060303 82.33639526 C-49.64411867 80.8033515 -49.6100607 79.27024767 -49.57867432 77.73709106 C-49.37998468 68.35074992 -48.67872104 59.25651337 -47 50 C-46.8438623 49.06075684 -46.68772461 48.12151367 -46.52685547 47.15380859 C-46.08294008 44.49363971 -45.60814274 41.84079216 -45.125 39.1875 C-44.97675781 38.31158203 -44.82851563 37.43566406 -44.67578125 36.53320312 C-42.50530783 24.71912218 -37.05822834 17.13419233 -27.3203125 10.05078125 C-8.06721071 -2.52100335 -8.06721071 -2.52100335 0 0 Z " fill="#0F0F0F" transform="translate(716,214)"/>
<path d="M0 0 C13.18186925 1.48827556 24.2701751 8.31000372 34 17 C35.3921875 18.175625 35.3921875 18.175625 36.8125 19.375 C43.50597718 27.40717262 45.0004403 36.05565363 46.421875 46.12109375 C46.87100001 49.90120465 46.87100001 49.90120465 48 53 C48.36324292 55.81229483 48.69706412 58.61877629 49 61.4375 C49.16416444 62.95730362 49.33075413 64.47684761 49.5 65.99609375 C49.60828125 67.00434204 49.60828125 67.00434204 49.71875 68.03295898 C49.95884121 69.99561686 49.95884121 69.99561686 50.49780273 71.84545898 C51.76735356 77.29212212 51.71808537 83.05341327 52.0625 88.625 C52.10702301 89.33474976 52.15154602 90.04449951 52.19741821 90.77575684 C52.80294133 100.60160133 53.18677045 110.40248367 53.1875 120.25 C53.1882251 121.26400879 53.1889502 122.27801758 53.18969727 123.32275391 C53.14604402 129.23507081 52.77708076 135.06000928 52.24291992 140.94677734 C51.7411744 147.25313869 51.63963265 153.58526261 51.48242188 159.90820312 C51.30010232 165.48442962 50.83265075 170.66365359 49.47924805 176.08032227 C48.85672382 178.57390759 48.49247777 181.08265379 48.125 183.625 C45.94442034 196.47894328 44.00910948 206.06782002 34 215 C33.2471875 215.70640625 32.494375 216.4128125 31.71875 217.140625 C24.79558097 223.18685928 14.43688495 230 5 230 C-0.8530763 216.33335097 -2.83713141 200.67584206 0 186 C1.56620432 183.64468507 2.76020437 182.52890778 5.2109375 181.16796875 C7.90105694 179.4117554 8.72736775 177.98104463 10 175 C10.39382158 171.49298414 10.32680859 168.02443392 10.25 164.5 C10.23976807 163.49420898 10.22953613 162.48841797 10.21899414 161.45214844 C10.10873873 153.48136779 9.76903451 145.52005723 9.26855469 137.56445312 C9.21989258 136.74396484 9.17123047 135.92347656 9.12109375 135.078125 C9.0739624 134.36043945 9.02683105 133.64275391 8.97827148 132.90332031 C9 131 9 131 10 128 C10.11010749 125.69694393 10.1590745 123.39082203 10.17700195 121.08520508 C10.18357315 120.38560669 10.19014435 119.6860083 10.19691467 118.96520996 C10.21662292 116.64998257 10.22830651 114.33482007 10.23828125 112.01953125 C10.24235678 111.22689062 10.2464323 110.43424999 10.25063133 109.61758995 C10.27148446 105.41978594 10.28578778 101.22201451 10.29516602 97.02416992 C10.30621131 92.70110293 10.3405912 88.37855337 10.38033772 84.05566883 C10.40656366 80.72093286 10.41486326 77.38631889 10.41844749 74.05148888 C10.42330034 72.45877283 10.43487705 70.86606176 10.45348549 69.27344704 C10.57425311 58.2496826 9.81515684 50.54782779 2 42 C1.278125 41.505 0.55625 41.01 -0.1875 40.5 C-2.64185615 38.4688087 -2.55684373 37.13134871 -3 34 C-3.24708129 29.16918637 -3.23108893 24.33650624 -3.25 19.5 C-3.270625 18.18128906 -3.29125 16.86257812 -3.3125 15.50390625 C-3.31765625 14.23417969 -3.3228125 12.96445313 -3.328125 11.65625 C-3.3374707 10.49931641 -3.34681641 9.34238281 -3.35644531 8.15039062 C-2.96578247 4.69757326 -1.99350297 2.80801013 0 0 Z " fill="#0A0A0A" transform="translate(882,215)"/>
<path d="M0 0 C12.17218776 1.5619179 21.73623604 7.2027006 31 15 C31.62648438 15.45890625 32.25296875 15.9178125 32.8984375 16.390625 C42.06706312 23.35717897 44.60870105 32.99708583 46.15136719 43.89355469 C46.25223633 44.64024414 46.35310547 45.38693359 46.45703125 46.15625 C46.86912412 49.90808129 46.86912412 49.90808129 48 53 C48.36324292 55.81229483 48.69706412 58.61877629 49 61.4375 C49.16416444 62.95730362 49.33075413 64.47684761 49.5 65.99609375 C49.60828125 67.00434204 49.60828125 67.00434204 49.71875 68.03295898 C49.95884121 69.99561686 49.95884121 69.99561686 50.49780273 71.84545898 C51.76735606 77.29213283 51.71804063 83.05340755 52.0625 88.625 C52.10702301 89.33441742 52.15154602 90.04383484 52.19741821 90.77474976 C52.80458068 100.62179839 53.18677189 110.4437126 53.1875 120.3125 C53.1882251 121.3348877 53.1889502 122.35727539 53.18969727 123.41064453 C53.14833849 129.03079094 52.80142121 134.54547348 52.24291992 140.13598633 C51.69449875 146.60184433 51.63497429 153.10645887 51.48242188 159.59179688 C51.29121644 165.73562446 50.68254116 171.09498964 49 177 C48.67960131 179.01647749 48.38645772 181.03753663 48.125 183.0625 C47.76334003 185.3771238 47.38760351 187.68957909 47 190 C46.79246094 191.2375 46.58492187 192.475 46.37109375 193.75 C43.55732527 207.01685042 35.91968021 215.13872621 24.6875 222.46484375 C11.49618321 230 11.49618321 230 5 230 C0.18262349 218.54119179 -1.32298994 207.3607831 -1.0625 195 C-1.06612549 194.19884766 -1.06975098 193.39769531 -1.07348633 192.57226562 C-0.92599162 189.17524471 -0.78464469 186.88495652 1.52392578 184.28125 C2.75468322 183.26528387 4.00726444 182.2751616 5.28051758 181.31298828 C7.74558234 179.43067701 8.86139648 177.8960133 10 175 C10.37498884 171.69792884 10.32670127 168.44386105 10.25 165.125 C10.23976807 164.17206055 10.22953613 163.21912109 10.21899414 162.23730469 C10.09868142 153.89834185 9.7357033 145.56508599 9.26855469 137.23876953 C9.21989258 136.31950684 9.17123047 135.40024414 9.12109375 134.453125 C9.0739624 133.64004883 9.02683105 132.82697266 8.97827148 131.98925781 C9 130 9 130 10 128 C10.11269312 125.73494422 10.15939951 123.46651961 10.17700195 121.19873047 C10.18685875 120.14955193 10.18685875 120.14955193 10.19691467 119.07917786 C10.21666325 116.75851332 10.22831676 114.43791371 10.23828125 112.1171875 C10.24235678 111.3236298 10.2464323 110.5300721 10.25063133 109.71246719 C10.27150373 105.5081839 10.28579752 101.3039333 10.29516602 97.09960938 C10.30620272 92.76866654 10.34056702 88.43824144 10.38033772 84.107481 C10.40656671 80.76845384 10.41486364 77.42954851 10.41844749 74.0904274 C10.42330122 72.49492033 10.43488046 70.89941827 10.45348549 69.3040123 C10.57412106 58.26891184 9.82338604 50.55682848 2 42 C1.278125 41.505 0.55625 41.01 -0.1875 40.5 C-2.64185615 38.4688087 -2.55684373 37.13134871 -3 34 C-3.24708129 29.16918637 -3.23108893 24.33650624 -3.25 19.5 C-3.270625 18.18128906 -3.29125 16.86257812 -3.3125 15.50390625 C-3.31765625 14.23417969 -3.3228125 12.96445313 -3.328125 11.65625 C-3.3374707 10.49931641 -3.34681641 9.34238281 -3.35644531 8.15039062 C-2.96578247 4.69757326 -1.99350297 2.80801013 0 0 Z " fill="#050505" transform="translate(737,215)"/>
<path d="M0 0 C0.97001953 0.05220703 1.94003906 0.10441406 2.93945312 0.15820312 C5.31420788 0.28688442 7.68843229 0.42179796 10.0625 0.5625 C12.2495217 4.57074262 12.73033257 8.44835026 13.1875 12.9375 C13.27314209 13.74622559 13.35878418 14.55495117 13.44702148 15.38818359 C14.01033455 21.08434233 14.17601515 26.68453384 14.05932617 32.40966797 C14.02564879 36.36490672 14.22733602 40.2944033 14.43507385 44.24328613 C15.22072262 59.53510864 14.97338939 74.76115838 14.625 90.0625 C14.57158645 92.65102774 14.51884864 95.23956952 14.46679688 97.828125 C14.33978538 104.07309923 14.20456935 110.31785109 14.0625 116.5625 C10.59106436 118.29821782 6.85806182 118.02895793 3.0625 117.5625 C-0.85966475 115.52878494 -3.6526836 113.37052734 -5.9375 109.5625 C-5.9375 108.9025 -5.9375 108.2425 -5.9375 107.5625 C-7.49597656 108.30306641 -7.49597656 108.30306641 -9.0859375 109.05859375 C-24.72228536 116.31551102 -24.72228536 116.31551102 -31.9375 115.5625 C-37.45362903 113.53024194 -37.45362903 113.53024194 -38.9375 110.5625 C-39.17265529 106.53136824 -39.16595191 102.49839669 -39.17773438 98.4609375 C-39.18736234 96.46602363 -39.21852562 94.4712513 -39.25 92.4765625 C-39.31188905 77.18996822 -39.31188905 77.18996822 -34.21875 71.71484375 C-33.6309375 71.31394531 -33.043125 70.91304688 -32.4375 70.5 C-28.76600925 67.97987587 -27.10629082 64.78722378 -25.9375 60.5625 C-25.61310703 57.56677495 -25.64946238 54.63339484 -25.75 51.625 C-25.76353516 50.84576172 -25.77707031 50.06652344 -25.79101562 49.26367188 C-25.82599776 47.36297596 -25.87979041 45.46264166 -25.9375 43.5625 C-29.5675 43.2325 -33.1975 42.9025 -36.9375 42.5625 C-38.80114124 37.83392006 -39.21884186 33.5981791 -39.16796875 28.57421875 C-39.16728142 27.4585125 -39.16728142 27.4585125 -39.1665802 26.32026672 C-39.16357562 24.75963734 -39.15574354 23.19901048 -39.14331055 21.63842773 C-39.12492307 19.23996485 -39.122802 16.84188577 -39.12304688 14.44335938 C-39.11813593 12.9244758 -39.11230946 11.40559486 -39.10546875 9.88671875 C-39.10435593 9.16699387 -39.1032431 8.44726898 -39.10209656 7.70573425 C-39.05359488 2.67859488 -39.05359488 2.67859488 -37.9375 1.5625 C-32.53547398 0.86239743 -27.07266102 0.4874338 -21.625 0.5625 C-18.0277177 0.66731192 -18.0277177 0.66731192 -14.890625 0.03515625 C-9.85972741 -0.56636411 -5.04613986 -0.30007804 0 0 Z " fill="#111111" transform="translate(308.9375,328.4375)"/>
<path d="M0 0 C1.06541016 0.00902344 2.13082031 0.01804687 3.22851562 0.02734375 C5.84008034 0.05076586 8.45116937 0.08356548 11.0625 0.125 C12.93647541 6.63627049 12.93647541 6.63627049 13.703125 9.609375 C16.73426649 20.8790036 21.54178769 28.41782977 30.76953125 35.640625 C35.59328614 40.86704426 34.21518038 49.16964735 34.1875 55.9375 C34.19330078 57.33838867 34.19330078 57.33838867 34.19921875 58.76757812 C34.19276026 63.42092072 34.07418726 68.05706134 33.7421875 72.69921875 C33.68530762 73.50319092 33.62842773 74.30716309 33.56982422 75.13549805 C33.0625 77.125 33.0625 77.125 30.0625 79.125 C12.80771308 76.40055996 -2.07451728 65.94262875 -12.75 52.4375 C-20.77277183 41.07560029 -30.00001621 25.56261345 -27.9375 11.125 C-26.0941922 6.51673051 -23.21706508 4.51168052 -18.9375 2.125 C-12.63191472 -0.23230599 -6.67620403 -0.10774755 0 0 Z " fill="#131313" transform="translate(63.9375,368.875)"/>
<path d="M0 0 C1.02480469 0.00322266 2.04960938 0.00644531 3.10546875 0.00976562 C4.16894531 0.01814453 5.23242188 0.02652344 6.328125 0.03515625 C7.40707031 0.03966797 8.48601562 0.04417969 9.59765625 0.04882812 C12.25786883 0.06059898 14.91796865 0.07704226 17.578125 0.09765625 C18.01898437 1.65033203 18.01898437 1.65033203 18.46875 3.234375 C22.57366453 17.56196702 26.85644164 28.61653401 39.578125 37.09765625 C40.81060232 43.34504127 40.72932738 49.6229473 40.703125 55.97265625 C40.70892578 57.36677734 40.70892578 57.36677734 40.71484375 58.7890625 C40.69086068 75.98492057 40.69086068 75.98492057 38.578125 78.09765625 C22.00038413 76.64346845 8.7291513 68.89312103 -2.640625 56.72265625 C-12.4632896 44.93545873 -21.97711859 29.16182433 -21.69140625 13.34375 C-21.24984197 9.66404769 -19.9237179 7.78713736 -17.421875 5.09765625 C-11.81383081 1.51218538 -6.64156557 -0.03689759 0 0 Z " fill="#121212" transform="translate(1123.421875,368.90234375)"/>
<path d="M0 0 C14.19382681 2.21553388 25.88496858 5.39140141 37 15 C37.98097656 15.76054687 38.96195313 16.52109375 39.97265625 17.3046875 C43.16581548 19.96900487 45.39200777 23.10330816 47.5625 26.625 C47.94599609 27.23456543 48.32949219 27.84413086 48.72460938 28.47216797 C54.05142899 37.10909672 58.12869261 45.24399108 58.1875 55.5 C58.20167969 56.6240625 58.21585938 57.748125 58.23046875 58.90625 C57.99942278 62.0077484 57.7462436 63.47460731 56 66 C53.80786133 66.71362305 53.80786133 66.71362305 51.08203125 67.01171875 C50.08131592 67.12942627 49.08060059 67.24713379 48.04956055 67.3684082 C46.44721558 67.52635864 46.44721558 67.52635864 44.8125 67.6875 C43.18985229 67.86575317 43.18985229 67.86575317 41.53442383 68.04760742 C38.35807994 68.38770176 35.18023583 68.69873615 32 69 C31.15791992 69.08411133 30.31583984 69.16822266 29.44824219 69.25488281 C17.6165818 70.41105453 17.6165818 70.41105453 14 68 C13.4453125 65.171875 13.4453125 65.171875 13.125 61.75 C12.32276865 55.72994985 11.41277576 53.10490768 7 49 C-0.74755936 41.43690634 -0.74755936 41.43690634 -1.32470703 35.86547852 C-1.30263184 34.71490967 -1.28055664 33.56434082 -1.2578125 32.37890625 C-1.24363281 31.11369141 -1.22945313 29.84847656 -1.21484375 28.54492188 C-1.18519531 27.23072266 -1.15554687 25.91652344 -1.125 24.5625 C-1.08147074 21.95970629 -1.0422533 19.35683609 -1.0078125 16.75390625 C-0.98348145 15.60220947 -0.95915039 14.4505127 -0.93408203 13.26391602 C-0.91973619 9.98298541 -0.91973619 9.98298541 -1.55810547 6.72631836 C-2.05392771 3.66728689 -1.66631806 2.54848645 0 0 Z " fill="#0A0A0A" transform="translate(106,211)"/>
<path d="M0 0 C13.06818358 1.68266624 24.36465083 4.97190574 35 13 C35.74121094 13.55171875 36.48242188 14.1034375 37.24609375 14.671875 C47.19699914 22.74297331 56.72677778 37.02590809 58.22949219 49.97802734 C58.99800489 61.50299266 58.99800489 61.50299266 56 66 C53.80786133 66.60009766 53.80786133 66.60009766 51.08203125 66.9140625 C50.08131592 67.03499268 49.08060059 67.15592285 48.04956055 67.28051758 C46.98133057 67.39419678 45.91310059 67.50787598 44.8125 67.625 C43.73073486 67.74834717 42.64896973 67.87169434 41.53442383 67.9987793 C38.35797429 68.35213889 35.18014536 68.68177983 32 69 C31.15791992 69.08556152 30.31583984 69.17112305 29.44824219 69.25927734 C17.61899998 70.41266665 17.61899998 70.41266665 14 68 C13.4453125 65.171875 13.4453125 65.171875 13.125 61.75 C12.32276865 55.72994985 11.41277576 53.10490768 7 49 C-0.22344487 41.77655513 -0.22344487 41.77655513 -0.3347168 37.00341797 C-0.35781418 36.20604218 -0.38091156 35.40866638 -0.40470886 34.58712769 C-0.41939713 33.73079742 -0.43408539 32.87446716 -0.44921875 31.9921875 C-0.48182549 30.67034958 -0.48182549 30.67034958 -0.51509094 29.32180786 C-0.55898122 27.46089722 -0.5981871 25.59987106 -0.63305664 23.73876953 C-0.68742663 20.8788594 -0.75757055 18.01965819 -0.83007812 15.16015625 C-0.87072208 13.35418737 -0.91046667 11.54819797 -0.94921875 9.7421875 C-0.96997971 8.88180878 -0.99074066 8.02143005 -1.01213074 7.13497925 C-1.04738855 5.09028613 -1.02924942 3.04478789 -1 1 C-0.67 0.67 -0.34 0.34 0 0 Z " fill="#070707" transform="translate(1172,211)"/>
<path d="M0 0 C12.50091741 7.16860518 19.70996433 18.15711194 23.55859375 31.8125 C26.06349989 41.96571955 28.03965879 51.84837219 27.4375 62.375 C26.62925781 62.62894531 25.82101562 62.88289063 24.98828125 63.14453125 C23.91964844 63.48871094 22.85101563 63.83289063 21.75 64.1875 C20.69425781 64.52394531 19.63851562 64.86039062 18.55078125 65.20703125 C15.57063638 66.32505298 13.13536959 67.70747257 10.4375 69.375 C3.82340663 71.65572185 -1.67796371 71.31149942 -8.5625 70.375 C-9.22268775 65.87613993 -9.62952318 61.50514399 -9.703125 56.95703125 C-9.73212891 55.54067383 -9.73212891 55.54067383 -9.76171875 54.09570312 C-9.79577384 52.14539441 -9.81381752 50.19474492 -9.81640625 48.24414062 C-9.93132473 42.43381569 -9.93132473 42.43381569 -12.796875 37.51171875 C-14.64238419 36.08588044 -16.49399179 34.66790119 -18.3515625 33.2578125 C-21.74682884 28.83076911 -21.1388557 24.66577397 -20.9375 19.25 C-20.92332031 18.26773438 -20.90914063 17.28546875 -20.89453125 16.2734375 C-20.83590045 13.30281029 -20.70955898 10.34247495 -20.5625 7.375 C-20.52672852 6.34407227 -20.49095703 5.31314453 -20.45410156 4.25097656 C-20.39963867 3.26323242 -20.34517578 2.27548828 -20.2890625 1.2578125 C-20.24604004 0.36723145 -20.20301758 -0.52334961 -20.15869141 -1.44091797 C-19.5625 -3.625 -19.5625 -3.625 -17.65405273 -4.94580078 C-12.00218129 -6.78115813 -4.9828921 -2.50544294 0 0 Z " fill="#131313" transform="translate(292.5625,215.625)"/>
<path d="M0 0 C1.42119141 0.25716797 1.42119141 0.25716797 2.87109375 0.51953125 C7.61547578 1.69701939 7.61547578 1.69701939 9.5625 3.1875 C10.171875 5.875 10.171875 5.875 10.3125 9.1875 C10.36664062 10.36699219 10.42078125 11.54648438 10.4765625 12.76171875 C10.50492188 13.89222656 10.53328125 15.02273437 10.5625 16.1875 C10.59085938 17.01894531 10.61921875 17.85039062 10.6484375 18.70703125 C10.6910279 21.20708783 10.64267362 23.6881744 10.5625 26.1875 C10.52253906 27.47269531 10.48257812 28.75789063 10.44140625 30.08203125 C10.08532567 38.8273704 9.77525185 46.38994432 3.9375 53.375 C0.23447699 58.31615034 -0.13740329 64.20028378 0.5625 70.1875 C2.16479667 73.51290141 4.55616925 75.12614841 7.5625 77.1875 C8.08473145 77.56471191 8.60696289 77.94192383 9.14501953 78.33056641 C15.82081091 83.14894244 22.63052623 87.38962326 30.0625 90.9375 C34.6386904 93.12812029 38.23692978 95.27180221 41.89453125 98.7578125 C43.80806997 100.39798855 45.77581097 101.44121675 48 102.625 C56.23155428 107.3505219 62.83590743 114.57631709 69.5625 121.1875 C70.07047119 121.64406982 70.57844238 122.10063965 71.10180664 122.57104492 C73.00005469 124.67171354 74.10545646 126.884156 75.375 129.4140625 C76.15230469 130.96287109 76.15230469 130.96287109 76.9453125 132.54296875 C77.47898437 133.62191406 78.01265625 134.70085937 78.5625 135.8125 C79.09617187 136.86824219 79.62984375 137.92398438 80.1796875 139.01171875 C84.64319889 147.97205132 88.13428047 155.76093107 87.9375 165.875 C87.92589844 166.65536621 87.91429687 167.43573242 87.90234375 168.23974609 C87.45704824 184.26056169 81.88083501 201.3284802 70.5625 213.1875 C69.9025 213.5175 69.2425 213.8475 68.5625 214.1875 C70.07025163 210.9788857 71.90099118 208.12881691 73.875 205.1875 C84.01024358 189.372297 87.71995942 170.93252893 83.7578125 152.4296875 C82.55958069 149.19859344 81.15925109 146.24247126 79.5625 143.1875 C78.781095 141.61855867 78.00268144 140.04812544 77.2265625 138.4765625 C76.00429646 136.00858573 74.7743237 133.5470718 73.51000977 131.1003418 C73.12901123 130.36211182 72.7480127 129.62388184 72.35546875 128.86328125 C71.83762817 127.8719519 71.83762817 127.8719519 71.30932617 126.8605957 C70.5625 125.1875 70.5625 125.1875 70.5625 123.1875 C69.96824219 122.92324219 69.37398437 122.65898437 68.76171875 122.38671875 C66.48147413 121.14331716 65.13184481 119.89565724 63.375 118 C57.0825466 111.54722931 49.91993071 106.62682829 42.23828125 101.9609375 C39.5625 100.1875 39.5625 100.1875 36.8046875 97.7734375 C33.05319956 94.57645452 28.77301031 92.60247969 24.375 90.4375 C16.56544215 86.46535859 9.9605277 82.23756479 3.5625 76.1875 C2.20511719 75.011875 2.20511719 75.011875 0.8203125 73.8125 C-2.62615986 69.80552867 -2.24275635 66.63558798 -2.0703125 61.53125 C-1.19222662 56.89148755 0.99556041 54.19261706 3.875 50.546875 C11.77710467 39.49856199 8.73861401 17.27864125 8.5625 4.1875 C1.14486766 2.22245812 1.14486766 2.22245812 -6.4375 2.1875 C-9.28670053 4.06519142 -9.28670053 4.06519142 -11.4375 6.1875 C-12.0975 5.8575 -12.7575 5.5275 -13.4375 5.1875 C-8.81579807 0.31597635 -6.65832933 -1.25577717 0 0 Z " fill="#D2D2D2" transform="translate(1149.4375,210.8125)"/>
<path d="M0 0 C16.99086653 3.03747335 29.9165408 11.19858326 40.2421875 24.99609375 C53.80612647 45.49555623 56.15605841 69.95515535 56.16796875 93.91796875 C56.17119387 95.46283497 56.17455881 97.0077009 56.17805481 98.55256653 C56.18401681 101.7859467 56.18589811 105.01930028 56.18530273 108.25268555 C56.18522201 111.51934409 56.1920821 114.78586081 56.20581055 118.05249023 C56.51128037 191.88345603 56.51128037 191.88345603 39 213 C39 209.08277966 40.6233878 206.31199452 42.3125 202.875 C44.95994391 197.34532761 47.33678411 191.91629654 49 186 C49.5259375 184.2365625 49.5259375 184.2365625 50.0625 182.4375 C53.21633409 168.99657621 53.3125239 155.32145117 53.30078125 141.6015625 C53.30468253 139.67214875 53.30902006 137.74273583 53.31376648 135.81332397 C53.32117118 131.79446614 53.3209794 127.77569626 53.31567383 123.75683594 C53.30988346 118.65836513 53.32682829 113.5602581 53.3500185 108.46184731 C53.36489301 104.48420174 53.36560915 100.50664109 53.36250877 96.52897263 C53.36301501 94.65148574 53.36811811 92.7739932 53.37832069 90.89653397 C53.50329488 64.69396514 49.62353357 37.09034803 30.65625 17.4375 C22.8189305 10.24560681 13.34891861 5.453077 3 3 C0.19505799 3.28077379 0.19505799 3.28077379 -2 4 C-1.34 2.68 -0.68 1.36 0 0 Z " fill="#CBCBCB" transform="translate(1021,210)"/>
<path d="M0 0 C12.17218776 1.5619179 21.73623604 7.2027006 31 15 C31.62648438 15.45890625 32.25296875 15.9178125 32.8984375 16.390625 C42.06706312 23.35717897 44.60870105 32.99708583 46.15136719 43.89355469 C46.25223633 44.64024414 46.35310547 45.38693359 46.45703125 46.15625 C46.86912412 49.90808129 46.86912412 49.90808129 48 53 C48.36324292 55.81229483 48.69706412 58.61877629 49 61.4375 C49.16416444 62.95730362 49.33075413 64.47684761 49.5 65.99609375 C49.60828125 67.00434204 49.60828125 67.00434204 49.71875 68.03295898 C49.95884121 69.99561686 49.95884121 69.99561686 50.49780273 71.84545898 C51.76735606 77.29213283 51.71804063 83.05340755 52.0625 88.625 C52.10702301 89.33441742 52.15154602 90.04383484 52.19741821 90.77474976 C52.80458068 100.62179839 53.18677189 110.4437126 53.1875 120.3125 C53.1882251 121.3348877 53.1889502 122.35727539 53.18969727 123.41064453 C53.14833849 129.03079094 52.80142121 134.54547348 52.24291992 140.13598633 C51.69449875 146.60184433 51.63497429 153.10645887 51.48242188 159.59179688 C51.29121644 165.73562446 50.68254116 171.09498964 49 177 C48.67960131 179.01647749 48.38645772 181.03753663 48.125 183.0625 C47.36303163 188.18628732 46.34372726 193.17329189 45.0625 198.1875 C44.58490234 200.06501953 44.58490234 200.06501953 44.09765625 201.98046875 C43 205 43 205 40 207 C40.62057657 204.43635601 41.24629199 201.87415074 41.875 199.3125 C42.04902344 198.59126953 42.22304688 197.87003906 42.40234375 197.12695312 C43.14853989 194.10071321 43.88998223 191.26138974 45.1015625 188.3828125 C46.22698778 185.39798894 46.35015012 182.74306366 46.5 179.5625 C46.78479069 173.53205719 46.78479069 173.53205719 47.97753906 170.58325195 C49.50191289 165.24102783 49.51653811 159.94627878 49.703125 154.4140625 C49.77394287 152.55686081 49.77394287 152.55686081 49.84619141 150.66213989 C49.96807041 147.33519158 50.08040732 144.00828309 50.18507385 140.68077087 C50.24999878 138.62503858 50.31788194 136.56941904 50.3861084 134.51379395 C51.920635 100.48756933 51.920635 100.48756933 47 67 C46.66929486 63.64785245 46.50317684 60.31703132 46.34375 56.953125 C46.18378615 54.08620809 46.18378615 54.08620809 45.02514648 52.08862305 C43.93062849 49.85866319 43.5713779 48.08378975 43.25390625 45.62890625 C43.13853516 44.80712891 43.02316406 43.98535156 42.90429688 43.13867188 C42.67700874 41.4255687 42.45303263 39.71202274 42.23242188 37.99804688 C41.56640586 33.29913833 40.78115775 29.96656925 38 26 C37.855625 25.278125 37.71125 24.55625 37.5625 23.8125 C37.376875 23.214375 37.19125 22.61625 37 22 C36.40960937 21.70867187 35.81921875 21.41734375 35.2109375 21.1171875 C32.67913927 19.83786896 31.08896131 18.29228657 29.0625 16.3125 C20.7002169 8.76035598 10.96792131 4.30787923 0 2 C0 2.99 0 3.98 0 5 C-0.66 5 -1.32 5 -2 5 C-1.34 3.35 -0.68 1.7 0 0 Z " fill="#CDCDCD" transform="translate(737,215)"/>
<path d="M0 0 C1.3303125 0.2475 1.3303125 0.2475 2.6875 0.5 C6.15366457 1.01992469 9.43883906 0.93869548 12.9375 0.8125 C18.3733281 0.76216826 23.19973393 1.4950251 28.4375 2.8125 C29.09935303 2.97790283 29.76120605 3.14330566 30.44311523 3.3137207 C34.57815195 4.42536854 38.23644791 5.96989231 42 8 C41.89171875 8.81911865 41.89171875 8.81911865 41.78125 9.65478516 C40.53095025 20.80980325 40.94063159 32.04646014 41.02050781 43.25195312 C41.08397215 53.02546144 41.08613104 62.67572313 40.19140625 72.41845703 C39.94455769 75.74776399 40.16054092 78.93255896 40.5 82.25 C41.20221877 90.45356757 40.74965142 98.54523656 40.3359375 106.75610352 C39.9910898 114.19244927 40.13762527 121.38668327 40.84375 128.79296875 C41.00252178 132.05175944 40.65551185 134.8128562 40 138 C39.814375 138.94875 39.62875 139.8975 39.4375 140.875 C39.293125 141.57625 39.14875 142.2775 39 143 C38.67 143 38.34 143 38 143 C37.97656112 127.44808189 37.95896712 111.89616702 37.94818783 96.34423542 C37.94304811 89.12198099 37.93605007 81.89973758 37.92456055 74.67749023 C37.91454231 68.37703941 37.9081297 62.07659658 37.90591151 55.77613801 C37.90461644 52.44514287 37.90106974 49.11418855 37.89426994 45.7831974 C37.88695554 42.04986877 37.88601342 38.31658666 37.88647461 34.58325195 C37.88287933 33.49855118 37.87928406 32.4138504 37.87557983 31.29627991 C37.88549405 23.82466857 38.3345297 16.44109165 39 9 C38.30011963 8.70279053 37.60023926 8.40558105 36.87915039 8.09936523 C35.20979818 7.39046224 33.54044596 6.68155924 31.87109375 5.97265625 C25.2192787 3.71918421 18.55468608 3.89971511 11.625 4 C9.82557921 4.0253797 8.02609075 4.04645666 6.2265625 4.0625 C5.04441162 4.07990234 5.04441162 4.07990234 3.83837891 4.09765625 C2 4 2 4 1 3 C0.01 6.3 -0.98 9.6 -2 13 C-2.33 13 -2.66 13 -3 13 C-3.31563182 7.73946963 -2.66590937 4.55426184 0 0 Z " fill="#C4C4C4" transform="translate(961,210)"/>
<path d="M0 0 C0.66 0.33 1.32 0.66 2 1 C1.94670532 1.88014771 1.94670532 1.88014771 1.89233398 2.77807617 C1.06840842 16.9471199 1.05010567 30.83926764 2 45 C11.22203607 46.94880762 20.00404816 47.1610072 29.39501953 46.83789062 C30.30622559 46.81791016 31.21743164 46.79792969 32.15625 46.77734375 C32.96900391 46.74890381 33.78175781 46.72046387 34.61914062 46.69116211 C37.8208876 47.10648306 39.52479857 47.91542216 42 50 C43.03330413 54.15063178 42.99640305 58.33468541 43.07910156 62.60424805 C43.12452354 64.66587421 43.22339075 66.71993492 43.328125 68.77929688 C43.36679687 70.09349609 43.40546875 71.40769531 43.4453125 72.76171875 C43.48156738 73.95756592 43.51782227 75.15341309 43.55517578 76.38549805 C42.83089119 81.10099204 41.48113206 84.64876624 38 88 C35.03570261 89.06021542 32.31654676 88.941066 29.19921875 88.78125 C27.9446563 88.76427063 27.9446563 88.76427063 26.66474915 88.74694824 C24.00329692 88.70229556 21.34731157 88.60197668 18.6875 88.5 C16.87963534 88.4598576 15.07168587 88.42335812 13.26367188 88.390625 C8.84035382 88.30259929 4.42110226 88.16464751 0 88 C0 87.67 0 87.34 0 87 C1.10512939 86.99589111 2.21025879 86.99178223 3.34887695 86.98754883 C7.44749655 86.96578385 11.54515249 86.91152289 15.64331055 86.84741211 C17.41730517 86.82420885 19.19143799 86.80983091 20.96557617 86.80444336 C23.51568965 86.79517022 26.06362254 86.75422067 28.61328125 86.70703125 C29.40712723 86.7109639 30.20097321 86.71489655 31.01887512 86.71894836 C34.57696474 86.62456888 36.48648783 86.53501268 39.00585938 83.91015625 C40.21921326 80.35829518 40.33932783 77.48555417 40.29296875 73.73046875 C40.28660149 72.70896477 40.28660149 72.70896477 40.28010559 71.66682434 C40.2634061 69.50663541 40.22577312 67.34740358 40.1875 65.1875 C40.17244174 63.71681042 40.15875534 62.24610611 40.14648438 60.77539062 C40.11353214 57.18328643 40.06181173 53.59173674 40 50 C39.07775635 49.98018066 38.1555127 49.96036133 37.20532227 49.93994141 C33.74414315 49.86128318 30.28335152 49.77457465 26.82250977 49.68261719 C25.33202727 49.6446185 23.84146211 49.60971804 22.35083008 49.578125 C14.36703257 49.40683333 6.74926038 49.14917481 -1 47 C-1.02501716 42.23519254 -1.04300757 37.47042466 -1.05493164 32.70556641 C-1.05991102 31.08999972 -1.06669694 29.47443742 -1.07543945 27.85888672 C-1.12466635 18.51735827 -1.01553142 9.30121449 0 0 Z " fill="#CCCCCC" transform="translate(569,253)"/>
<path d="M0 0 C13.1346398 2.15108245 24.17193574 4.82643474 35 13 C35.74121094 13.55171875 36.48242188 14.1034375 37.24609375 14.671875 C47.19843368 22.74413685 56.73841538 37.03763491 58.22949219 49.99414062 C58.51734182 54.35067342 58.53335304 58.66019053 58 63 C57.34 63.66 56.68 64.32 56 65 C56.08701172 63.49373047 56.08701172 63.49373047 56.17578125 61.95703125 C56.74215547 47.91509488 52.95232261 38.08960185 44.76953125 26.55859375 C43 24 43 24 42.01171875 21.78515625 C40.70543355 19.48024375 39.38575418 19.06482814 37 18 C35.90949637 17.09522692 34.84711042 16.15569098 33.8125 15.1875 C23.7196996 6.40183511 12.10892805 3.73531705 -1 3 C-0.67 2.01 -0.34 1.02 0 0 Z " fill="#D7D7D7" transform="translate(1172,211)"/>
<path d="M0 0 C4.56196216 6.92159776 4.20992314 14.4471755 4.25 22.4375 C4.270625 23.46166016 4.29125 24.48582031 4.3125 25.54101562 C4.34120323 31.08432597 4.25517449 35.26735553 1 40 C0.01 40.495 0.01 40.495 -1 41 C-0.690625 40.29875 -0.38125 39.5975 -0.0625 38.875 C2.03118577 33.20973264 2.18219329 27.58974122 2.1875 21.625 C2.20586914 20.54992187 2.20586914 20.54992187 2.22460938 19.453125 C2.24171038 13.13715226 1.58037153 7.37055729 -2 2 C-7.72796307 2.46681637 -12.17586747 3.587628 -17.25 6.375 C-17.88969727 6.71934082 -18.52939453 7.06368164 -19.18847656 7.41845703 C-25.06432051 10.74129782 -29.82851622 14.95473529 -34.609375 19.6796875 C-37 22 -37 22 -40 24 C-34.63206798 11.95553562 -20.41373435 5.15321588 -9 0 C-5.38597653 -1.20467449 -3.62816543 -1.1338017 0 0 Z " fill="#D8D8D8" transform="translate(861,214)"/>
<path d="M0 0 C14.19382681 2.21553388 25.88496858 5.39140141 37 15 C37.98097656 15.76054687 38.96195313 16.52109375 39.97265625 17.3046875 C43.16566357 19.96887812 45.39275841 23.10294529 47.5625 26.625 C47.9445459 27.23456543 48.3265918 27.84413086 48.72021484 28.47216797 C57.40057941 42.58834845 57.40057941 42.58834845 56.6171875 47.3046875 C56.41351563 47.86414063 56.20984375 48.42359375 56 49 C55.5875 47.97261719 55.175 46.94523437 54.75 45.88671875 C47.68075401 28.73959552 37.7433124 14.68444697 20.5 6.8125 C13.63109888 4.15322323 6.27815396 3.68627755 -1 3 C-0.67 2.01 -0.34 1.02 0 0 Z " fill="#D9D9D9" transform="translate(106,211)"/>
<path d="M0 0 C13.17142461 1.48709633 24.28511507 8.30286492 34 17 C34.94875 17.825 35.8975 18.65 36.875 19.5 C39.56099439 22.6599934 41.65898661 26.05533074 43 30 C42.67 30.66 42.34 31.32 42 32 C39.61956865 30.07298414 38.95390019 28.85593809 38 25.875 C34.50360963 17.21639976 23.03306631 11.02881613 15 7 C10.10076656 4.96191889 5.16838735 3.21397005 0 2 C0 2.99 0 3.98 0 5 C-0.66 5 -1.32 5 -2 5 C-1.34 3.35 -0.68 1.7 0 0 Z " fill="#D7D7D7" transform="translate(882,215)"/>
<path d="M0 0 C0.66 0.33 1.32 0.66 2 1 C1.51104248 1.45793945 1.02208496 1.91587891 0.51831055 2.38769531 C-1.81273931 6.3983455 -1.36964213 10.24155393 -1.29296875 14.796875 C-1.28872391 15.74564514 -1.28447906 16.69441528 -1.28010559 17.67193604 C-1.26333082 20.69824766 -1.22568056 23.7238901 -1.1875 26.75 C-1.17245162 28.80337579 -1.15876348 30.85676203 -1.14648438 32.91015625 C-1.11343117 37.94036148 -1.06165683 42.97006733 -1 48 C1.64 48 4.28 48 7 48 C7 48.33 7 48.66 7 49 C4.03 49 1.06 49 -2 49 C-3.50074254 41.28644761 -3.48632873 33.4543633 -3.72241211 25.62231445 C-3.78265258 23.74343205 -3.85171748 21.86481258 -3.92944336 19.98657227 C-4.04165178 17.26866126 -4.1273269 14.55106612 -4.20703125 11.83203125 C-4.24641312 10.99138626 -4.28579498 10.15074127 -4.32637024 9.28462219 C-4.37817383 6.91723633 -4.37817383 6.91723633 -4 3 C-1.98706055 0.94799805 -1.98706055 0.94799805 0 0 Z " fill="#757575" transform="translate(1181,396)"/>
<path d="M0 0 C12.16288618 1.56072433 21.75038106 7.19396321 31 15 C31.63808594 15.48210937 32.27617188 15.96421875 32.93359375 16.4609375 C37.61990228 20.1092035 40.85597818 24.41660984 43 30 C42.67 30.66 42.34 31.32 42 32 C39.35300621 29.95459571 38.94254743 28.78168025 38.0625 25.4375 C37.42562103 21.95572039 37.42562103 21.95572039 35.1796875 21.015625 C34.46039062 20.68046875 33.74109375 20.3453125 33 20 C31.65890261 18.80209987 30.3487427 17.56911715 29.0625 16.3125 C20.7002169 8.76035598 10.96792131 4.30787923 0 2 C0 2.99 0 3.98 0 5 C-0.66 5 -1.32 5 -2 5 C-1.34 3.35 -0.68 1.7 0 0 Z " fill="#D7D7D7" transform="translate(737,215)"/>
<path d="M0 0 C0.66 0.33 1.32 0.66 2 1 C1.51104248 1.45793945 1.02208496 1.91587891 0.51831055 2.38769531 C-1.81273931 6.3983455 -1.36964213 10.24155393 -1.29296875 14.796875 C-1.28872391 15.74564514 -1.28447906 16.69441528 -1.28010559 17.67193604 C-1.26333082 20.69824766 -1.22568056 23.7238901 -1.1875 26.75 C-1.17245162 28.80337579 -1.15876348 30.85676203 -1.14648438 32.91015625 C-1.11343117 37.94036148 -1.06165683 42.97006733 -1 48 C1.64 48 4.28 48 7 48 C7 48.33 7 48.66 7 49 C4.03 49 1.06 49 -2 49 C-3.81345507 41.63160616 -3.5016874 33.81504552 -3.72241211 26.27050781 C-3.78259129 24.33629359 -3.85163864 22.40233543 -3.92944336 20.46875 C-4.04166876 17.67474097 -4.12734883 14.88104113 -4.20703125 12.0859375 C-4.26610405 10.78745377 -4.26610405 10.78745377 -4.32637024 9.46273804 C-4.37370962 7.23498448 -4.39128851 5.19369489 -4 3 C-1.98706055 0.93212891 -1.98706055 0.93212891 0 0 Z " fill="#737373" transform="translate(115,396)"/>
<path d="M0 0 C0 3 0 3 -1.9375 5.1875 C-8.54286429 14.19481494 -5.22311785 31.49429135 -4 42 C-10.00305854 32.99541219 -9.01156204 16.29629433 -7 6 C-4.8880533 2.80176493 -3.42274836 1.86695365 0 0 Z " fill="#676767" transform="translate(889,395)"/>
<path d="M0 0 C0 3.93602341 -1.58022978 4.99361881 -4 8 C-5.04357007 11.12025359 -5.18908689 14.14794856 -5.31640625 17.421875 C-5.35830078 18.44667969 -5.40019531 19.47148437 -5.44335938 20.52734375 C-5.50233398 22.12255859 -5.50233398 22.12255859 -5.5625 23.75 C-5.60568359 24.82894531 -5.64886719 25.90789062 -5.69335938 27.01953125 C-5.79928989 29.67956428 -5.90136421 32.33968812 -6 35 C-6.33 35 -6.66 35 -7 35 C-9.35017027 9.18428346 -9.35017027 9.18428346 -5.37109375 3.79296875 C-3.64575455 2.30464584 -1.99469672 1.09369794 0 0 Z " fill="#707070" transform="translate(744,395)"/>
<path d="M0 0 C8.16047799 0.1985957 14.64357196 2.57458419 22 6 C21.67 9.63 21.34 13.26 21 17 C20.34 17 19.68 17 19 17 C19 13.7 19 10.4 19 7 C12.66282862 4.32232195 6.75133875 2.30671073 0 1 C0 0.67 0 0.34 0 0 Z " fill="#D6D6D6" transform="translate(981,212)"/>
<path d="M0 0 C0.66 0 1.32 0 2 0 C2.33 0.66 2.66 1.32 3 2 C5.1522163 2.41655799 7.32390825 2.73508448 9.5 3 C11.67609175 3.26491552 13.8477837 3.58344201 16 4 C16.33 4.66 16.66 5.32 17 6 C10.9981863 6.21824777 5.80766296 5.5056904 0 4 C0 2.68 0 1.36 0 0 Z " fill="#CACACA" transform="translate(568,296)"/>
<path d="M0 0 C0.66 0.33 1.32 0.66 2 1 C0.84371094 2.12148437 0.84371094 2.12148437 -0.3359375 3.265625 C-1.34922356 4.26014651 -2.36222975 5.25495323 -3.375 6.25 C-3.88289062 6.74113281 -4.39078125 7.23226562 -4.9140625 7.73828125 C-7.51583648 10.30582136 -9.64588097 12.57391571 -11 16 C-11.66 16 -12.32 16 -13 16 C-11.57699887 11.31095412 -8.84303666 8.48389525 -5.375 5.1875 C-4.859375 4.68541016 -4.34375 4.18332031 -3.8125 3.66601562 C-2.54840846 2.43703773 -1.27511194 1.21753999 0 0 Z " fill="#2E2E2E" transform="translate(687,227)"/>
<path d="M0 0 C0.92371086 2.49401932 1.15467489 3.62436098 0.125 6.125 C-1.51210274 10.30870701 -1.67134941 14.54591969 -2 19 C-2.66 19 -3.32 19 -4 19 C-3.66944259 12.05829437 -3.24571282 6.20918975 0 0 Z " fill="#8A8A8A" transform="translate(820,239)"/>
<path d="M0 0 C1.32 0.33 2.64 0.66 4 1 C3.57847656 1.42410156 3.15695312 1.84820312 2.72265625 2.28515625 C-1.23246072 6.51945795 -2.7628617 9.19011172 -3 15 C-3.33 15 -3.66 15 -4 15 C-4.51211281 8.59858988 -4.11888494 5.01989102 0 0 Z " fill="#757575" transform="translate(1106,374)"/>
<path d="M0 0 C0.66 0.33 1.32 0.66 2 1 C1.2884375 1.7734375 1.2884375 1.7734375 0.5625 2.5625 C-1.42809407 5.66782675 -1.65060818 8.36632504 -2 12 C-4 10 -4 10 -4.375 6.5625 C-4 3 -4 3 -2 1.0625 C-1.34 0.711875 -0.68 0.36125 0 0 Z " fill="#898989" transform="translate(1181,396)"/>
<path d="M0 0 C4.51478398 0.53115106 7.34666857 2.36620292 11 5 C10.67 5.99 10.34 6.98 10 8 C9.0925 7.236875 8.185 6.47375 7.25 5.6875 C4.885444 3.71516893 2.48694058 1.81737966 0 0 Z " fill="#CFCFCF" transform="translate(1193,313)"/>
</svg>
